<?xml version="1.0" encoding="utf-8"?>
<!-- Svg Vector Icons : http://www.onlinewebfonts.com/icon -->
<!DOCTYPE svg PUBLIC "-//W3C//DTD SVG 1.1//EN" "http://www.w3.org/Graphics/SVG/1.1/DTD/svg11.dtd">
<svg version="1.1" xmlns="http://www.w3.org/2000/svg" xmlns:xlink="http://www.w3.org/1999/xlink" x="0px" y="0px" viewBox="0 0 256 256" enable-background="new 0 0 256 256" xml:space="preserve">
<metadata> Svg Vector Icons : http://www.onlinewebfonts.com/icon </metadata>
<g><g><path fill="#fff" d="M40.7,227.8c-5.3,0-14.8-6.4-14.8-11.6l0.6-176.5c0-5.2,8.8-13.3,14.1-13.3l124.4,0.5l-3.3,43.2h36.8l0,56.8l19,18.9V70h0.1l-0.1-0.1v-0.8h-0.7l-55-57.8v-0.1H38.5C22.8,11.2,10,24,10,39.7v176.5c0,15.7,12.8,28.5,28.5,28.5H105l-15-16.1L40.7,227.8z"/><path fill="#fff" d="M42.5,53.1H86v43.5H42.5V53.1z"/><path fill="#fff" d="M42.5,112.1h132.1v15.8H42.5V112.1L42.5,112.1z"/><path fill="#fff" d="M42.6,141.8h132.1v15.8H42.6V141.8L42.6,141.8z"/><path fill="#fff" d="M246,194.1l-65.5-50.8v32.1c0,0-30.4,9-66.8,61.1c0,0,42.7-19.6,66.8-19.9v28.2L246,194.1z"/></g></g>
</svg>
